<svg width="50" height="50" viewBox="0 0 50 50" fill="none" xmlns="http://www.w3.org/2000/svg">
<path d="M25 0L30.6129 17.2746H48.7764L34.0818 27.9508L39.6946 45.2254L25 34.5491L10.3054 45.2254L15.9182 27.9508L1.22359 17.2746H19.3871L25 0Z" fill="#FF7373"/>
<path d="M23.74 29.14L30.085 22.795L28.825 21.535L23.74 26.62L21.175 24.055L19.915 25.315L23.74 29.14ZM25 34C23.755 34 22.585 33.7636 21.49 33.2908C20.395 32.8186 19.4425 32.1775 18.6325 31.3675C17.8225 30.5575 17.1814 29.605 16.7092 28.51C16.2364 27.415 16 26.245 16 25C16 23.755 16.2364 22.585 16.7092 21.49C17.1814 20.395 17.8225 19.4425 18.6325 18.6325C19.4425 17.8225 20.395 17.1811 21.49 16.7083C22.585 16.2361 23.755 16 25 16C26.245 16 27.415 16.2361 28.51 16.7083C29.605 17.1811 30.5575 17.8225 31.3675 18.6325C32.1775 19.4425 32.8186 20.395 33.2908 21.49C33.7636 22.585 34 23.755 34 25C34 26.245 33.7636 27.415 33.2908 28.51C32.8186 29.605 32.1775 30.5575 31.3675 31.3675C30.5575 32.1775 29.605 32.8186 28.51 33.2908C27.415 33.7636 26.245 34 25 34Z" fill="black"/>
</svg>
