<svg xmlns="http://www.w3.org/2000/svg" width="48" height="48"><g transform="translate(0 -1004.362)"><circle cx="24" cy="1028.362" r="24" fill="#ef4c45" fill-rule="evenodd"/><path style="line-height:normal;-inkscape-font-specification:Sans;text-indent:0;text-align:start;text-decoration-line:none;text-transform:none;block-progression:tb;marker:none" fill="#fff" d="M23.5 1015.362v2.813h1v-2.813zm-7.188.031-.812.563 1.656 2.312.813-.594zm15.594 0-1.656 2.281.813.594 1.656-2.312zm-12.281 3.688c-1.714 0-3.44.633-4.75 1.937-2.563 2.552-2.578 6.632-.125 9.25 1.41 1.562 3.019 3.061 4.531 4.563l4.375 4.375.031.03c.082.059.181.093.282.095a.41.41 0 0 0 .156 0l.031-.031h.063a.546.546 0 0 0 .062-.062c.022-.01.043-.02.063-.031l4.406-4.375c1.477-1.52 3.174-3.06 4.531-4.625 2.403-2.62 2.39-6.654-.156-9.188-2.519-2.508-6.492-2.535-9.125-.218-1.264-1.113-2.793-1.72-4.375-1.72zm0 .968c1.456 0 2.912.573 4.031 1.688a.519.519 0 0 0 .688 0 5.695 5.695 0 0 1 8.062 0 5.642 5.642 0 0 1 0 8.03l-4.375 4.344-4.03 4.032-4.032-4.032c-1.453-1.474-2.997-2.915-4.406-4.406-2.188-2.232-2.19-5.757.03-7.969a5.711 5.711 0 0 1 4.032-1.687zm-9.25 1.438-.375.938 2.625 1.03.375-.937zm27.25 0L35 1022.518l.375.938 2.625-1.032zM14 1030.8l-2.625 1.03.375.938 2.625-1.062zm20 0-.375.906 2.625 1.062.375-.937zm-16.844 5.187-1.656 2.281.812.594 1.657-2.281zm13.907 0-.813.594 1.656 2.281.813-.594zm-7.563 3.969v2.812h1v-2.812z" color="#000" font-family="Sans" font-weight="400" overflow="visible"/></g></svg>