<svg xmlns="http://www.w3.org/2000/svg" width="48" height="48"><path style="line-height:normal;-inkscape-font-specification:Sans;text-indent:0;text-align:start;text-decoration-line:none;text-transform:none;block-progression:tb;marker:none" d="M24 0C10.751 0 0 10.751 0 24s10.751 24 24 24 24-10.751 24-24S37.249 0 24 0zm0 1.012c12.702 0 22.988 10.286 22.988 22.988S36.702 46.99 24 46.99 1.012 36.702 1.012 24C1.012 11.298 11.298 1.012 24 1.012zm-.5 9.582v2.812h1v-2.812h-1zm-7.188.031-.812.563 1.656 2.312.813-.594-1.657-2.281zm15.594 0-1.656 2.281.813.594 1.656-2.313-.813-.562zm-12.281 3.688c-1.714 0-3.44.633-4.75 1.937-2.563 2.551-2.578 6.632-.125 9.25 1.41 1.562 3.019 3.06 4.531 4.563l4.375 4.375.032.03c.081.059.18.092.28.094a.41.41 0 0 0 .157 0 .48.48 0 0 0 .031-.03h.063a.551.551 0 0 0 .062-.063c.022-.01.043-.018.063-.03l4.406-4.375c1.477-1.52 3.174-3.06 4.531-4.625 2.404-2.62 2.39-6.653-.156-9.187-2.519-2.509-6.492-2.537-9.125-.22-1.264-1.113-2.793-1.718-4.375-1.718v-.002zm0 .968c1.456 0 2.912.573 4.031 1.688a.518.518 0 0 0 .688 0 5.695 5.695 0 0 1 8.062 0 5.642 5.642 0 0 1 0 8.031l-4.375 4.344L24 33.375l-4.031-4.031c-1.453-1.475-2.997-2.916-4.407-4.407-2.187-2.232-2.19-5.757.032-7.968a5.711 5.711 0 0 1 4.031-1.688zm-9.25 1.438-.375.937 2.625 1.032.375-.938-2.625-1.031zm27.25 0L35 17.75l.375.938L38 17.655l-.375-.937zM14 26.03l-2.625 1.032.375.937 2.625-1.063-.375-.906zm20 0-.375.907L36.25 28l.375-.938L34 26.032zM17.156 31.22 15.5 33.5l.813.594 1.656-2.282-.813-.593zm13.907 0-.813.593 1.656 2.282.813-.594-1.657-2.281zM23.5 35.187V38h1v-2.813h-1z" color="#000" font-family="Sans" font-weight="400" overflow="visible"/></svg>