<svg xmlns="http://www.w3.org/2000/svg" width="32" height="32" fill="none" viewBox="0 0 32 32"><path fill="#000" d="M10 18C10 17.4477 10.4477 17 11 17H15V13C15 12.4477 15.4477 12 16 12C16.5523 12 17 12.4477 17 13V17H21C21.5523 17 22 17.4477 22 18C22 18.5523 21.5523 19 21 19H17V23C17 23.5523 16.5523 24 16 24C15.4477 24 15 23.5523 15 23V19H11C10.4477 19 10 18.5523 10 18Z"/><path fill="#000" fill-rule="evenodd" d="M4 4C4 1.79086 5.79086 0 8 0H23C23.5523 0 24 0.447715 24 1V6H27C27.5523 6 28 6.44771 28 7V31C28 31.5523 27.5523 32 27 32H9C6.23858 32 4 29.7614 4 27V4.20312C4 4.18039 4.00076 4.15784 4.00225 4.13549C4.00075 4.09051 4 4.04534 4 4ZM7.99676 6L22 6V2L8 2C6.89543 2 6 2.89543 6 4C6 5.10349 6.89368 5.99825 7.99676 6ZM8 8C7.27201 8 6.59127 7.88511 6 7.62208L6 27C6 28.6569 7.34315 30 9 30H26V8L8 8Z" clip-rule="evenodd"/></svg>