<svg id="SvgjsSvg1012" width="288" height="288" xmlns="http://www.w3.org/2000/svg" version="1.1" xmlns:xlink="http://www.w3.org/1999/xlink" xmlns:svgjs="http://svgjs.com/svgjs"><defs id="SvgjsDefs1013"></defs><g id="SvgjsG1014"><svg xmlns="http://www.w3.org/2000/svg" viewBox="0 0 30 30" width="288" height="288"><g fill="#303c42" class="color303C42 svgShape"><path d="M6.5 3h-5C.673 3 0 3.673 0 4.5v21c0 .827.673 1.5 1.5 1.5h5c.827 0 1.5-.673 1.5-1.5v-21C8 3.673 7.327 3 6.5 3zM7 22H1v-3h6v3zM15.5 3h-5C9.673 3 9 3.673 9 4.5v21c0 .827.673 1.5 1.5 1.5h5c.827 0 1.5-.673 1.5-1.5v-21c0-.827-.673-1.5-1.5-1.5zm.5 16h-6v-3h6v3zM29.956 23.968L25.124 4.145a1.5 1.5 0 00-1.811-1.102l-4.84 1.177c-.389.094-.718.335-.926.677a1.484 1.484 0 00-.176 1.136l4.832 19.822a1.503 1.503 0 001.812 1.103l4.839-1.177a1.49 1.49 0 00.926-.678c.21-.343.272-.746.176-1.135zM27.4 17.695l.779 3.196-5.806 1.437-.74-3.032 5.767-1.6z" fill="#000000" class="color000 svgShape"></path></g></svg></g></svg>